<svg id="Layer_1" data-name="Layer 1" xmlns="http://www.w3.org/2000/svg" viewBox="0 0 300 300"><defs><style>.cls-1{fill:#ea2e42;}</style></defs><title>Artboard 4</title><path class="cls-1" d="M291.51,130.19A8.49,8.49,0,0,0,300,121.7V65.1a8.49,8.49,0,0,0-8.49-8.49H243.4V8.49A8.49,8.49,0,0,0,234.91,0H8.49A8.49,8.49,0,0,0,0,8.49V65.1a8.49,8.49,0,0,0,8.49,8.49H56.6v39.62H8.49A8.49,8.49,0,0,0,0,121.7v56.6a8.49,8.49,0,0,0,8.49,8.49H56.6v39.62H8.49A8.49,8.49,0,0,0,0,234.9v56.6A8.49,8.49,0,0,0,8.49,300H234.91a8.49,8.49,0,0,0,8.49-8.49V243.4h48.11A8.49,8.49,0,0,0,300,234.9V178.3a8.49,8.49,0,0,0-8.49-8.49H243.4V130.19Zm-8.49-17H186.79V73.59H283Zm-56.6-56.6H130.19V17h96.22ZM17,17h96.23V56.6H17Zm56.6,56.6h96.22v39.62H73.59ZM17,130.19h96.23v39.62H17Zm56.6,56.6h96.22v39.62H73.59ZM17,243.39h96.23V283H17ZM226.41,283H130.19V243.4h96.22Zm56.6-56.6H186.79V186.79H283Zm-56.6-56.6H130.19V130.19h96.22Z"/></svg>