<?xml version="1.0" standalone="no"?>
<!DOCTYPE svg PUBLIC "-//W3C//DTD SVG 20010904//EN"
 "http://www.w3.org/TR/2001/REC-SVG-20010904/DTD/svg10.dtd">
<svg version="1.0" xmlns="http://www.w3.org/2000/svg"
 width="300.000000pt" height="300.000000pt" viewBox="0 0 300.000000 300.000000"
 preserveAspectRatio="xMidYMid meet">
<metadata>
Created by potrace 1.11, written by Peter Selinger 2001-2013
</metadata>
<g transform="translate(0.000000,300.000000) scale(0.100000,-0.100000)"
fill="#000000" stroke="none">
<path d="M46 2985 c-43 -21 -46 -45 -46 -357 0 -164 4 -308 10 -322 17 -46 37
-49 306 -49 l251 0 1 -197 0 -198 -231 0 c-128 0 -245 -1 -260 -1 -17 -1 -38
-12 -53 -28 l-25 -27 3 -318 c3 -314 3 -318 25 -340 22 -22 28 -22 275 -24
139 -1 256 -2 260 -3 3 0 6 -88 5 -195 l-1 -195 -241 1 c-132 0 -247 -1 -256
-1 -9 -1 -28 -13 -42 -27 l-27 -26 3 -318 c2 -297 3 -319 21 -339 l19 -21
1178 0 1178 0 19 27 c18 26 20 45 18 281 l-1 252 258 0 258 0 24 25 25 24 0
318 c0 298 -2 320 -20 343 l-19 25 -250 1 c-138 1 -257 4 -264 7 -9 3 -12 51
-11 193 l1 189 254 5 c258 5 289 10 303 46 3 8 6 157 6 330 l0 315 -25 24 -24
25 -256 0 -255 0 -1 23 c0 12 -2 123 -3 247 -3 277 -1 256 -33 277 -25 17 -94
18 -1182 18 -769 0 -1161 -3 -1175 -10z m1080 -167 c4 -5 6 -113 5 -295 l-1
-93 -479 0 -480 0 0 194 0 195 27 3 c43 5 923 1 928 -4z m1109 3 l30 -1 0
-192 0 -193 -478 -3 c-378 -2 -477 0 -478 10 -5 50 -3 374 3 378 5 4 754 4
923 1z m-535 -761 l0 -197 -480 0 -480 0 0 197 0 197 480 0 480 0 0 -197z
m1131 171 c0 -37 0 -202 0 -292 l-1 -76 -479 0 -478 0 -1 197 0 197 479 0 479
0 1 -26z m-1701 -558 c2 -84 -2 -368 -5 -371 -3 -4 -893 -6 -942 -3 -9 1 -12
49 -12 196 l1 195 479 0 c449 0 479 -1 479 -17z m1131 10 c1 -5 2 -92 3 -195
1 -161 -1 -188 -14 -189 -8 0 -224 -1 -480 -1 l-464 -1 -1 184 c-1 101 1 190
3 197 3 9 108 12 478 12 261 0 475 -3 475 -7z m-563 -754 l2 -197 -480 1 -480
0 0 196 0 196 478 0 477 0 3 -196z m1132 166 c1 -45 1 -274 1 -321 l-1 -42
-479 1 -480 0 1 191 c0 105 1 193 3 196 2 3 217 5 479 5 l476 0 0 -30z m-1699
-605 c0 -38 0 -99 0 -135 0 -36 0 -93 0 -128 l-1 -62 -477 0 -478 0 -2 198 -3
197 480 0 480 0 1 -70z m1135 -120 c0 -102 -1 -190 -3 -195 -2 -7 -163 -10
-471 -9 -257 1 -472 2 -477 3 -7 1 -10 67 -9 194 1 105 2 193 3 195 1 1 216 1
479 0 l477 -3 1 -185z"/>
</g>
</svg>
